<svg width="171" height="31" viewBox="0 0 171 31" fill="none" xmlns="http://www.w3.org/2000/svg">
<path d="M77.6999 18.7H72.1499V24.5H78.9499L77.6999 18.7Z" fill="#E81E45"/>
<path d="M137.3 18.7H131.75V24.5H138.55L137.3 18.7Z" fill="#E81E45"/>
<path d="M80.1001 0.5H61.0501V6.05H65.1501L59.8501 29.6H66.5001L71.5501 6.05H75.0001L77.7001 18.7L78.9501 24.5L80.0501 29.6H86.7001L80.1001 0.5Z" fill="#3E3E3E"/>
<path d="M139.65 0.5H120.65V6.05H124.75L119.45 29.6H126.05L131.1 6.05H134.6L137.3 18.7L138.55 24.5L139.65 29.6H146.25L139.65 0.5Z" fill="#3E3E3E"/>
<path d="M13.8 17.95H10.75V29.6H4.2V17.95H1.4V12.15H4.2V6.3H0V0.5H10.75V12.15H14.05L18.55 0.5H26L19.65 15.1C20.7 17.4 21.8 19.85 22.95 22.35C24.1 24.9 25.15 27.3 26.15 29.6H18.65L13.8 17.95Z" fill="#3E3E3E"/>
<path d="M53.7001 0.5V29.6H47.1501V17.85H37.4501V29.6H30.9V17.85H28.05V12.05H30.9V0.5H37.4501V12.05H47.1501V0.5H53.7001Z" fill="#3E3E3E"/>
<path d="M105.15 0.5C112.15 0.5 115.65 3.9 115.65 10.75C115.65 14.2 114.8 16.85 113.05 18.65C111.3 20.5 108.65 21.4 105.15 21.4H100.9V29.6H94.3499V21.35H91.5499V15.65H94.3499V6.2H90.1499V0.5H105.15ZM105.1 15.65C107.7 15.65 109 14 109 10.75C109 9.1 108.7 7.95 108.1 7.3C107.5 6.65 106.5 6.25 105.1 6.25H100.9V15.65H105.1Z" fill="#3E3E3E"/>
<path d="M170.1 9.95H163.6V5.9H162.8C161.05 5.9 159.8 6.15 159.05 6.65C158.35 7 157.85 7.85 157.5 9.15C157.15 10.45 156.95 12.7 156.95 15.95C156.95 19.15 157.3 21.4 158.05 22.6H158C158.7 23.7 160.1 24.25 162.25 24.25C162.8 24.25 163.35 24.25 163.95 24.2C164.55 24.15 165.15 24.15 165.8 24.05C167.05 23.95 168.4 23.75 169.95 23.55L170.1 29.05C169.25 29.25 168.5 29.4 167.75 29.55C167 29.7 166.3 29.8 165.55 29.85C164.2 30 162.9 30.1 161.7 30.1C160.5 30.1 159.45 30 158.5 29.85C158 29.8 157.55 29.7 157.15 29.55C156.7 29.4 156.3 29.3 155.95 29.15C154.45 28.55 153.25 27.55 152.4 26.2H152.45C151.6 24.9 151.05 23.4 150.75 21.6C150.6 20.7 150.45 19.75 150.4 18.65C150.35 17.55 150.3 16.35 150.3 15.05C150.3 9.45 151.1 5.6 152.65 3.4C154.3 1.1 157.25 0 161.5 0C162.7 0 164 0.1 165.45 0.3C166.9 0.5 168.45 0.8 170.2 1.2V9.95H170.1Z" fill="#3E3E3E"/>
</svg>
